<svg width="507" height="140" viewBox="0 0 507 140" fill="none" xmlns="http://www.w3.org/2000/svg">
<rect width="140" height="140" rx="40" fill="#16A34A"/>
<path d="M72.625 38.5625L47.875 114H27.9375L61.75 23H74.4375L72.625 38.5625ZM93.1875 114L68.375 38.5625L66.375 23H79.1875L113.188 114H93.1875ZM92.0625 80.125V94.8125H44V80.125H92.0625Z" fill="white"/>
<path d="M227.938 38.5625L203.188 114H183.25L217.062 23H229.75L227.938 38.5625ZM248.5 114L223.688 38.5625L221.688 23H234.5L268.5 114H248.5ZM247.375 80.125V94.8125H199.312V80.125H247.375ZM309.875 23V114H291.188V23H309.875ZM337.875 23V37.6875H263.625V23H337.875ZM407.062 99.375V114H361.25V99.375H407.062ZM367.312 23V114H348.562V23H367.312ZM453.25 81.5625H430.062V66.9375H453.25C456.833 66.9375 459.75 66.3542 462 65.1875C464.25 63.9792 465.896 62.3125 466.938 60.1875C467.979 58.0625 468.5 55.6667 468.5 53C468.5 50.2917 467.979 47.7708 466.938 45.4375C465.896 43.1042 464.25 41.2292 462 39.8125C459.75 38.3958 456.833 37.6875 453.25 37.6875H436.562V114H417.812V23H453.25C460.375 23 466.479 24.2917 471.562 26.875C476.688 29.4167 480.604 32.9375 483.312 37.4375C486.021 41.9375 487.375 47.0833 487.375 52.875C487.375 58.75 486.021 63.8333 483.312 68.125C480.604 72.4167 476.688 75.7292 471.562 78.0625C466.479 80.3958 460.375 81.5625 453.25 81.5625Z" fill="#16A34A"/>
</svg>
